<svg xmlns="http://www.w3.org/2000/svg" viewBox="0 0 64 64" role="img" aria-labelledby="title">
  <title id="title">Happy Wakey monochrome sunrise alarm mark</title>
  <g fill="none" stroke="currentColor" stroke-linecap="round" stroke-linejoin="round">
    <path d="M16 31a16 16 0 0 1 32 0" stroke-width="4"/>
    <path d="M23 18l-5-5m23 5l5-5M32 14V9" stroke-width="4"/>
    <path d="M11 16c-4 4-4 10-3 14m45-14c4 4 4 10 3 14" stroke-width="3"/>
    <circle cx="32" cy="41" r="12" stroke-width="3"/>
    <path d="M27 40c1-2 3-2 4 0m2 0c1-2 3-2 4 0m-9 5c2 3 6 3 8 0" stroke-width="2.5"/>
    <path d="M12 53c12-7 28-7 40 0" stroke-width="4"/>
  </g>
</svg>
